<svg width="213" height="71" viewBox="0 0 213 71" fill="none" xmlns="http://www.w3.org/2000/svg">
<path fill-rule="evenodd" clip-rule="evenodd" d="M78.1565 0.0303881C78.5033 0.738638 78.9287 1.45124 79.4412 2.1174C80.8715 3.97636 83.0055 5.5 86 5.5C88.3571 5.5 91.2358 5.21794 94.085 4.93878C95.4947 4.80065 96.8973 4.66323 98.2258 4.56103C100.252 4.40516 102.111 4.32972 103.61 4.44387C104.36 4.5009 105.002 4.6042 105.523 4.76098C106.047 4.91878 106.414 5.12101 106.646 5.35355C106.98 5.68673 107.462 5.9178 108.002 6.0858C108.55 6.25643 109.205 6.37637 109.928 6.4578C111.376 6.62072 113.155 6.63546 115.02 6.56211C118.753 6.4153 122.898 5.91262 125.577 5.49401L125.423 4.50599C122.769 4.92072 118.664 5.41803 114.98 5.56289C113.137 5.63538 111.416 5.61886 110.04 5.46407C109.352 5.38665 108.765 5.27612 108.299 5.13099C107.824 4.98324 107.52 4.81327 107.354 4.64645C106.961 4.25399 106.422 3.98747 105.811 3.80347C105.197 3.61846 104.476 3.50691 103.686 3.44676C102.107 3.32653 100.185 3.40734 98.1492 3.56397C96.7691 3.67013 95.3384 3.81048 93.9151 3.95011C91.098 4.22647 88.3096 4.5 86 4.5C83.3945 4.5 81.5285 3.19031 80.2338 1.5076C79.8769 1.0438 79.5654 0.553678 79.2962 0.0586116L137.5 1.5L196.058 0L212.49 5.74481L211 33.5L212.49 64.2241L204.461 71H189.149L185.228 68.6432L136.5 67L81.7842 68.6432L74.6888 71L23.5 69L0 71V46.9896V44V25.5V23.8631V0H9.52282L12.5104 4.41909L39 1.5L64.2324 4.41909L76.9295 0L78.1565 0.0303881ZM100 5.5C100.644 5.5 101.4 5.54849 102.118 5.6682C102.844 5.78916 103.495 5.97698 103.955 6.23579C104.417 6.4955 104.592 6.7669 104.6 7.04086C104.61 7.35397 104.418 7.87535 103.646 8.64645C102.143 10.15 100.804 10.4061 99.7686 10.2088C98.6963 10.0046 97.8461 9.29484 97.4 8.7L96.6 9.3C97.1539 10.0385 98.2037 10.9287 99.5814 11.1912C100.996 11.4606 102.657 11.05 104.354 9.35355C105.182 8.52465 105.623 7.74603 105.6 7.00914C105.575 6.2331 105.05 5.7045 104.445 5.36421C103.839 5.02302 103.056 4.81084 102.282 4.6818C101.5 4.55151 100.689 4.5 100 4.5V5.5ZM192.754 69.1828C192.756 69.1838 192.758 69.1847 192.761 69.1854C192.765 69.1872 192.771 69.1884 192.776 69.1889C192.78 69.1893 192.783 69.1894 192.787 69.1891C192.79 69.1889 192.793 69.1885 192.797 69.1879L192.803 69.1866L192.932 69.1519C192.949 69.1472 192.963 69.1381 192.972 69.1245C192.981 69.1092 192.983 69.0929 192.978 69.0756L192.791 68.3763L193.604 68.1584C193.621 68.1538 193.635 68.1447 193.644 68.1311C193.653 68.1158 193.655 68.0995 193.65 68.0822L193.623 67.9786C193.617 67.9596 193.607 67.9465 193.593 67.9394C193.579 67.9301 193.563 67.928 193.544 67.9331L192.73 68.151L192.569 67.5475L193.434 67.3157C193.439 67.3143 193.444 67.3125 193.449 67.3105L193.454 67.3078C193.46 67.3043 193.465 67.3001 193.469 67.2952C193.471 67.293 193.472 67.2908 193.474 67.2884C193.48 67.2782 193.483 67.2676 193.482 67.2566C193.482 67.2546 193.482 67.2526 193.482 67.2505C193.482 67.2469 193.481 67.2432 193.48 67.2395L193.452 67.1359C193.447 67.1169 193.437 67.1039 193.422 67.0967C193.42 67.0952 193.418 67.0939 193.415 67.0927C193.412 67.0911 193.409 67.0899 193.405 67.0891C193.401 67.0881 193.397 67.0877 193.392 67.0877C193.386 67.0877 193.38 67.0886 193.373 67.0904L192.317 67.3735C192.299 67.3782 192.286 67.3881 192.278 67.4035C192.274 67.4094 192.272 67.416 192.271 67.4231C192.27 67.4318 192.271 67.4413 192.274 67.4517L192.727 69.143C192.732 69.1602 192.741 69.1735 192.754 69.1828ZM194.436 68.7043C194.554 68.721 194.684 68.7101 194.827 68.6717C195.038 68.6153 195.193 68.5247 195.293 68.3998C195.393 68.275 195.421 68.1323 195.378 67.9717C195.352 67.875 195.31 67.8012 195.252 67.7501C195.194 67.6973 195.117 67.6615 195.021 67.6428C194.925 67.6223 194.798 67.6118 194.641 67.6114C194.505 67.609 194.4 67.6027 194.327 67.5926C194.254 67.5809 194.196 67.5604 194.153 67.5312C194.111 67.5015 194.083 67.4573 194.067 67.3986C194.044 67.3106 194.059 67.2351 194.115 67.1721C194.17 67.1092 194.256 67.062 194.374 67.0305C194.481 67.0019 194.576 67.0022 194.66 67.0316C194.743 67.0592 194.8 67.1079 194.83 67.1777C194.847 67.2082 194.874 67.2186 194.91 67.2088L195.047 67.1721C195.053 67.1706 195.058 67.1687 195.062 67.1664C195.072 67.1615 195.078 67.1547 195.082 67.1461C195.09 67.133 195.092 67.1195 195.088 67.1057C195.065 67.0341 195.019 66.9687 194.949 66.9096C194.88 66.8505 194.791 66.8106 194.681 66.7899C194.572 66.7675 194.45 66.7743 194.315 66.8104C194.184 66.8456 194.076 66.8974 193.993 66.9661C193.909 67.0329 193.851 67.1105 193.819 67.1986C193.789 67.2862 193.786 67.3767 193.811 67.4699C193.837 67.5666 193.879 67.6416 193.936 67.6948C193.992 67.7481 194.066 67.7857 194.157 67.8075C194.248 67.8294 194.366 67.8413 194.511 67.8432C194.66 67.8476 194.773 67.8544 194.85 67.8635C194.926 67.8727 194.987 67.8907 195.031 67.9177C195.077 67.9443 195.108 67.9869 195.123 68.0456C195.148 68.1371 195.131 68.2185 195.072 68.2897C195.013 68.3592 194.912 68.4132 194.769 68.4516C194.636 68.4872 194.525 68.4891 194.437 68.4572C194.35 68.4248 194.29 68.3744 194.255 68.3061C194.233 68.2748 194.206 68.2635 194.174 68.2723L194.042 68.3077C194.026 68.3119 194.014 68.3216 194.005 68.337C194.001 68.3435 193.999 68.3502 193.998 68.3569C193.997 68.3636 193.997 68.3705 193.999 68.3774C194.025 68.4611 194.076 68.5326 194.151 68.5921C194.226 68.6498 194.321 68.6872 194.436 68.7043ZM195.936 68.1861C196.091 68.2701 196.282 68.2819 196.509 68.2213C196.733 68.1611 196.891 68.0559 196.982 67.9057C197.074 67.7532 197.092 67.5569 197.035 67.3168C197.011 67.2123 196.993 67.1384 196.981 67.0953C196.969 67.0504 196.948 66.9783 196.918 66.8791C196.849 66.6478 196.734 66.4889 196.574 66.4023C196.413 66.3139 196.225 66.2986 196.009 66.3565C195.791 66.4148 195.635 66.5223 195.54 66.6792C195.445 66.8343 195.425 67.0293 195.48 67.2642C195.492 67.3148 195.511 67.3875 195.536 67.4825C195.562 67.5775 195.582 67.6506 195.598 67.702C195.668 67.9384 195.781 68.0998 195.936 68.1861ZM196.743 67.7894C196.684 67.894 196.586 67.9646 196.45 68.0011C196.313 68.0377 196.192 68.0256 196.087 67.965C195.984 67.9038 195.906 67.7887 195.853 67.6196C195.838 67.5683 195.818 67.4994 195.795 67.4131C195.772 67.325 195.754 67.2557 195.742 67.2052C195.703 67.0324 195.713 66.8937 195.772 66.7891C195.833 66.684 195.932 66.6132 196.068 66.5766C196.203 66.5405 196.322 66.5531 196.425 66.6142C196.53 66.6749 196.609 66.7897 196.662 66.9588C196.675 67.0036 196.687 67.0421 196.697 67.0743C196.708 67.1137 196.717 67.1438 196.722 67.1646C196.732 67.1992 196.748 67.2687 196.773 67.3732C196.812 67.546 196.802 67.6847 196.743 67.7894ZM197.683 67.7067C197.837 67.7986 198.03 67.8136 198.261 67.7516C198.415 67.7104 198.538 67.6488 198.631 67.5665C198.723 67.4826 198.785 67.3892 198.817 67.2863C198.849 67.1835 198.853 67.0804 198.831 66.9771C198.829 66.9611 198.82 66.9504 198.806 66.945C198.793 66.9375 198.778 66.9357 198.763 66.9399L198.62 66.9781C198.603 66.9827 198.591 66.9907 198.582 67.0021C198.574 67.0135 198.571 67.0312 198.572 67.055C198.579 67.1919 198.551 67.2975 198.487 67.3719C198.425 67.444 198.33 67.4972 198.202 67.5315C197.905 67.611 197.708 67.4873 197.609 67.1603C197.594 67.1107 197.573 67.0375 197.547 66.9408C197.521 66.8442 197.503 66.7723 197.492 66.7252C197.414 66.3926 197.524 66.1865 197.821 66.1069C197.949 66.0727 198.058 66.0722 198.148 66.1054C198.238 66.1368 198.315 66.2133 198.379 66.335C198.398 66.3724 198.425 66.3864 198.459 66.3772L198.602 66.339C198.616 66.3353 198.627 66.3278 198.635 66.3164C198.644 66.3028 198.647 66.289 198.643 66.2752L198.642 66.2701C198.61 66.1713 198.554 66.0853 198.475 66.012C198.397 65.9388 198.296 65.8897 198.175 65.8649C198.053 65.8383 197.915 65.8456 197.762 65.8868C197.532 65.9483 197.374 66.0583 197.287 66.2168C197.199 66.3735 197.18 66.5618 197.23 66.7816C197.241 66.8304 197.261 66.9084 197.29 67.0154C197.318 67.1208 197.339 67.1965 197.353 67.2427C197.421 67.4596 197.531 67.6143 197.683 67.7067ZM199.338 67.4187C199.353 67.4258 199.369 67.4271 199.386 67.4224L199.524 67.3857C199.541 67.381 199.553 67.3721 199.561 67.359C199.566 67.351 199.568 67.3427 199.569 67.3342C199.57 67.3264 199.569 67.3184 199.567 67.3101L199.113 65.6162C199.109 65.599 199.099 65.5868 199.084 65.5797C199.075 65.5735 199.065 65.5704 199.055 65.5703C199.049 65.5703 199.044 65.5711 199.038 65.5726L198.901 65.6094C198.896 65.6105 198.892 65.612 198.889 65.6138C198.886 65.6152 198.883 65.6169 198.88 65.6187C198.873 65.6239 198.866 65.6308 198.861 65.6393C198.86 65.6426 198.858 65.646 198.857 65.6495C198.856 65.6526 198.855 65.6558 198.855 65.6591C198.854 65.6671 198.854 65.6757 198.857 65.6849L199.311 67.3788C199.315 67.3961 199.325 67.4094 199.338 67.4187ZM200.046 67.2289C200.061 67.236 200.077 67.2373 200.095 67.2327L201.185 66.9405C201.195 66.9379 201.203 66.9339 201.21 66.9285C201.215 66.9244 201.219 66.9195 201.222 66.9138C201.224 66.9114 201.225 66.9089 201.226 66.9063C201.227 66.9036 201.228 66.9009 201.229 66.8982L201.23 66.8938C201.23 66.8911 201.231 66.8882 201.231 66.8854C201.231 66.8818 201.231 66.8783 201.23 66.8746C201.23 66.8723 201.23 66.8698 201.229 66.8674L201.229 66.865L201.202 66.764C201.2 66.7582 201.198 66.753 201.196 66.7483C201.191 66.7375 201.183 66.7294 201.174 66.7241C201.168 66.7204 201.161 66.7182 201.153 66.7175C201.145 66.7168 201.136 66.7177 201.126 66.7203L200.225 66.9619L200.067 66.3739L200.891 66.1532C200.908 66.1486 200.92 66.1397 200.928 66.1266C200.937 66.1113 200.939 66.095 200.934 66.0777L200.909 65.9819C200.906 65.9718 200.902 65.9635 200.897 65.9567C200.892 65.9507 200.886 65.9461 200.879 65.9427C200.873 65.9387 200.867 65.936 200.86 65.9346C200.852 65.9327 200.842 65.933 200.832 65.9357L200.009 66.1564L199.857 65.5891L200.737 65.3532C200.756 65.3481 200.77 65.339 200.777 65.3258C200.784 65.311 200.786 65.2949 200.781 65.2776L200.755 65.1792C200.75 65.1602 200.74 65.1472 200.725 65.1401C200.711 65.1307 200.696 65.1284 200.678 65.133L199.609 65.4196C199.592 65.4243 199.578 65.4342 199.57 65.4496C199.562 65.4627 199.561 65.4788 199.566 65.4978L200.019 67.1891C200.02 67.1944 200.022 67.1993 200.025 67.2039C200.026 67.2071 200.028 67.2101 200.03 67.213C200.034 67.2192 200.04 67.2245 200.046 67.2289ZM202.013 66.7019C202.028 66.709 202.044 66.7102 202.062 66.7056L202.196 66.6695C202.214 66.6649 202.227 66.6558 202.236 66.6422C202.238 66.6394 202.239 66.6366 202.24 66.6338C202.241 66.6314 202.242 66.629 202.243 66.6265C202.246 66.6159 202.246 66.6048 202.242 66.5933L201.834 65.0704L202.329 64.9378C202.346 64.9332 202.36 64.9241 202.369 64.9105C202.378 64.8951 202.38 64.8789 202.375 64.8616L202.346 64.7528C202.344 64.7466 202.342 64.741 202.34 64.7361C202.334 64.7259 202.326 64.7184 202.316 64.7136C202.313 64.7115 202.31 64.7097 202.306 64.7083C202.304 64.7074 202.302 64.7067 202.3 64.7062C202.294 64.7049 202.289 64.7044 202.283 64.7047C202.278 64.7049 202.273 64.7058 202.267 64.7073L201.019 65.0418C201.015 65.0428 201.012 65.044 201.008 65.0455C201.004 65.0474 201 65.0496 200.997 65.0522C200.99 65.0573 200.984 65.0638 200.98 65.0717C200.977 65.078 200.975 65.0845 200.974 65.0912C200.973 65.1004 200.973 65.11 200.976 65.1199L201.005 65.2287C201.01 65.246 201.019 65.2593 201.032 65.2686C201.047 65.2757 201.063 65.2769 201.081 65.2723L201.578 65.1391L201.986 66.662C201.991 66.6793 202 66.6926 202.013 66.7019ZM203.601 66.2764C203.607 66.2789 203.612 66.2807 203.618 66.2817C203.628 66.2837 203.638 66.2831 203.65 66.2801L203.784 66.244C203.801 66.2394 203.815 66.2303 203.824 66.2167C203.833 66.2014 203.835 66.1851 203.83 66.1678L203.667 65.5566L203.946 64.5451C203.986 64.6074 204.024 64.6722 204.061 64.7396C204.324 65.2209 204.393 65.6144 204.353 65.9382C204.313 66.2609 204.157 66.5696 203.87 66.8704C203.276 67.4922 202.184 68.0126 200.762 68.4194C198.052 69.195 194.436 69.4783 191.808 69.4988L191.127 68.1367C192.944 66.6928 195.629 64.909 198.154 63.9421C199.493 63.4292 200.74 63.1651 201.766 63.2665C202.595 63.3485 203.279 63.6658 203.78 64.3081C203.766 64.319 203.755 64.3356 203.748 64.3578L203.468 65.3323L202.738 64.6284C202.714 64.6032 202.688 64.5946 202.659 64.6024L202.524 64.6385C202.51 64.6422 202.499 64.6506 202.492 64.6638C202.484 64.6769 202.482 64.6904 202.486 64.7042C202.487 64.7094 202.491 64.715 202.496 64.7209C202.5 64.7274 202.502 64.7323 202.503 64.7358L203.41 65.6253L203.574 66.2365C203.576 66.2438 203.579 66.2504 203.582 66.2562C203.587 66.2643 203.593 66.271 203.601 66.2764ZM201.865 62.2714C203.145 62.3979 204.249 62.9962 204.939 64.2608C205.276 64.8795 205.417 65.483 205.345 66.0614C205.273 66.641 204.995 67.1402 204.593 67.5612C203.808 68.3831 202.499 68.9627 201.038 69.3809C198.089 70.2244 194.186 70.5 191.5 70.5L191.191 70.5L191.053 70.2236L190.053 68.2238L189.874 67.8663L190.183 67.6132C192.038 66.0954 194.985 64.0847 197.796 63.0083C199.198 62.4712 200.615 62.1479 201.865 62.2714ZM189.939 55.7394C190.423 54.8521 191.241 53.7784 192.115 53.3013C192.537 53.0706 192.931 53.0013 193.299 53.1071C193.673 53.2143 194.116 53.5287 194.576 54.265C195.172 55.218 195.252 55.797 195.168 56.1727C195.084 56.5517 194.805 56.8652 194.325 57.225C194.147 57.3582 193.96 57.4853 193.759 57.622L193.758 57.6225L193.674 57.6793C193.647 57.6977 193.62 57.7163 193.592 57.7351L193.545 57.7673C193.269 57.9571 192.975 58.166 192.702 58.405C192.15 58.8883 191.657 59.5154 191.507 60.4178L192.493 60.5822C192.593 59.9846 192.913 59.5492 193.361 59.1575C193.587 58.959 193.841 58.7773 194.111 58.592C194.173 58.5494 194.237 58.5061 194.301 58.4623L194.304 58.4604C194.511 58.32 194.727 58.1738 194.925 58.025C195.445 57.6347 195.979 57.1358 196.144 56.3897C196.311 55.6404 196.078 54.7819 195.424 53.735C194.884 52.8712 194.265 52.344 193.576 52.146C192.881 51.9466 192.213 52.1084 191.635 52.4236C190.509 53.0382 189.577 54.3145 189.061 55.2605L189.939 55.7394ZM191.146 62.8536L191.646 63.3536L192.354 62.6464L191.854 62.1464L191.146 62.8536ZM28.9064 63.2284C28.2956 63.8896 28 64.4865 28 65.0001C28 65.5662 27.6825 65.9866 27.2453 66.271C26.8241 66.5449 26.2563 66.7213 25.621 66.8373C24.3428 67.0705 22.6077 67.0895 20.7228 66.9868C16.9411 66.7809 12.4164 66.0765 9.40456 65.4909L9.59544 64.5093C12.5836 65.0903 17.0589 65.7859 20.7772 65.9883C22.6423 66.0899 24.2822 66.0651 25.4415 65.8535C26.025 65.747 26.4415 65.6008 26.7 65.4327C26.9425 65.275 27 65.1339 27 65.0001C27 64.1136 27.4961 63.2813 28.1718 62.5498C28.8564 61.8087 29.7872 61.1037 30.7949 60.4652C32.8125 59.1866 35.2219 58.1222 36.8271 57.5308L37.1729 58.4692C35.6115 59.0444 33.2708 60.0801 31.3301 61.3099C30.3586 61.9255 29.5082 62.5768 28.9064 63.2284ZM44.7736 60.0276C49.0171 60.4427 53.1723 61.8623 55.7114 63.0472L55.2885 63.9533C52.8276 62.8049 48.7828 61.4245 44.6763 61.0229C40.553 60.6196 36.4941 61.2133 33.8535 63.8538C33.1666 64.5407 32.7259 65.0845 32.4745 65.5045C32.2134 65.9406 32.2064 66.1596 32.2253 66.2386C32.2337 66.2737 32.2647 66.3622 32.5177 66.4427C32.7759 66.5248 33.1678 66.5612 33.6905 66.5382C35.7873 66.4459 39.2493 65.4456 41.8328 64.5288L42.1672 65.4713C39.5839 66.3879 35.9959 67.4377 33.7344 67.5372C33.1675 67.5621 32.6381 67.5303 32.2146 67.3956C31.786 67.2593 31.3751 66.9825 31.2528 66.4713C31.1409 66.0039 31.3144 65.4955 31.6165 64.9909C31.9282 64.4702 32.4333 63.8598 33.1464 63.1467C36.1059 60.1872 40.5469 59.6142 44.7736 60.0276ZM59.5728 63.1252C59.2649 63.3965 59 63.9444 59 65.0001C59 65.5242 58.8841 65.9824 58.6445 66.362C58.404 66.7431 58.0607 67.0103 57.664 67.1866C56.8924 67.5297 55.8888 67.5431 54.8717 67.4082C52.8182 67.1359 50.3893 66.2114 48.7859 65.4519L49.214 64.5482C50.7773 65.2887 53.0983 66.1643 55.0032 66.4169C55.9653 66.5445 56.743 66.5017 57.2578 66.2729C57.5043 66.1633 57.6806 66.0157 57.7988 65.8283C57.9179 65.6396 58 65.3759 58 65.0001C58 63.8057 58.2975 62.9161 58.9115 62.375C59.53 61.8299 60.3489 61.7435 61.1481 61.8825C62.7279 62.1572 64.5667 63.3597 65.8535 64.6465C65.8534 64.6464 65.8536 64.6465 65.8542 64.647C65.8613 64.6522 65.9216 64.6962 66.0931 64.7597C66.2639 64.823 66.4991 64.8894 66.8021 64.957C67.4068 65.0919 68.2371 65.2216 69.269 65.3444C71.33 65.5895 74.1514 65.8017 77.4872 65.9773C84.1562 66.3283 92.8508 66.5313 101.564 66.5626C110.278 66.5938 119.003 66.4532 125.733 66.1179C129.099 65.9501 131.958 65.7341 134.063 65.4679C135.117 65.3346 135.971 65.1902 136.6 65.0362C136.915 64.9592 137.163 64.8823 137.348 64.8076C137.542 64.7289 137.624 64.6689 137.646 64.6465L138.354 65.3536C138.188 65.5187 137.958 65.6394 137.723 65.7346C137.477 65.8339 137.179 65.9241 136.838 66.0076C136.155 66.1746 135.259 66.3247 134.189 66.46C132.046 66.7309 129.158 66.9484 125.783 67.1166C119.028 67.4532 110.284 67.5938 101.561 67.5626C92.8367 67.5313 84.1249 67.328 77.4346 66.9759C74.0907 66.7999 71.2441 66.5864 69.1509 66.3374C68.1056 66.213 67.2371 66.0786 66.5843 65.933C66.2585 65.8603 65.9752 65.7824 65.7457 65.6974C65.5318 65.6181 65.3046 65.5118 65.1464 65.3536C63.9332 64.1404 62.2721 63.0929 60.9768 62.8677C60.3385 62.7567 59.8761 62.8578 59.5728 63.1252Z" fill="#FF0000"/>
</svg>
