<svg width="213" height="71" viewBox="0 0 213 71" fill="none" xmlns="http://www.w3.org/2000/svg">
<path fill-rule="evenodd" clip-rule="evenodd" d="M52.5029 0H0V23.8631V25.5V44V46.9896V71H39.4075L46.5029 68.6432H57.0029L60.9241 71H204.461L212.49 64.2241V5.74481L203.003 0H142.003L136.003 2.5H52.6906L52.5029 0ZM10.0029 62H5.00293V67H10.0029V62ZM12.0029 62H17.0029H22.0029V67H17.0029H12.0029V62ZM29.0029 65H24.0029V67H29.0029V65ZM36.0029 62H31.0029V67H36.0029V62ZM43.0029 62H38.0029V67H43.0029V62ZM5.00293 5H4.00293V7H6.00293V6H7.00293V7H9.00293V5H8.00293V4H9.00293V2H7.00293V3H6.00293V2H4.00293V4H5.00293V5ZM14.0029 5H11.0029V7H14.0029H16.0029V5V2L14.0029 2V5ZM13.0029 2H11.0029V4H13.0029V2ZM18.0029 2H20.0029V5H21.0029V2H23.0029V5V7H21.0029H20.0029H18.0029V5V2ZM50.0029 62H45.0029V64H50.0029H55.0029V59H50.0029V62ZM64.0029 62H69.0029V67H64.0029V62ZM62.0029 62H60.0029V67H62.0029V62ZM208.003 61V58H210.003V61H208.003ZM208.003 53V56H210.003V53V51H208.003V53ZM209.003 49V46H210.003V49H209.003ZM208.003 45V42H210.003V45H208.003ZM208.003 41V38H210.003V41H208.003ZM209.003 34V37H210.003V34V31H208.003V34H209.003ZM208.003 26V23H210.003V26H208.003ZM208.003 27V28H210.003V27H208.003ZM144.003 2H145.003L146.003 2V3L147.003 3V2L148.003 2V3L149.003 3V2L150.003 2H151.003V4L150.003 4H149.003H148.003H147.003H146.003H145.003H144.003V2Z" fill="#FF0000"/>
</svg>
