<svg width="213" height="71" viewBox="0 0 213 71" fill="none" xmlns="http://www.w3.org/2000/svg">
<path fill-rule="evenodd" clip-rule="evenodd" d="M11.5 0V4.79289L6.70711 0H11.5ZM12.5 0V6V7.20711L11.6464 6.35355L5.29289 0H0V23.8631V25.5V44V46.9896V71H74.6888L81.7842 68.6432H151L154.921 71H162V69.5V69.2929L162.146 69.1464L164.646 66.6464L164.793 66.5H165H184.5H185V67V71H204.461L212.49 64.2241V53.2175L207.854 57.8536L207.146 57.1464L212.49 51.8033V41.7175L210.5 43.7071V52V52.2071L210.354 52.3536L206.5 56.2071V60.7929L208.646 58.6464L209.354 59.3536L206.354 62.3536L205.5 63.2071V62V56V55.7929L205.646 55.6464L209.5 51.7929V43.5V43.2929L209.646 43.1464L212.49 40.3033V36.2175L208 40.7071V48H207V40.5V40.2929L207.146 40.1464L212.49 34.8033V5.74481L196.058 0H151.5L142.793 2.5H133.5V11.2929L136.146 8.64645L136.293 8.5H136.5H140V9.5H136.707L133.354 12.8536L132.5 13.7071V12.5V2.5H131.5V8.5V8.70711L131.354 8.85355L127.354 12.8536L126.5 13.7071V12.5V12.4794V12.4588V12.4381V12.4173V12.3964V12.3754V12.3543V12.3331V12.3119V12.2905V12.2691V12.2476V12.226V12.2043V12.1826V12.1607V12.1388V12.1168V12.0947V12.0726V12.0503V12.028V12.0056V11.9831V11.9605V11.9379V11.9152V11.8924V11.8695V11.8465V11.8235V11.8004V11.7772V11.754V11.7307V11.7072V11.6838V11.6602V11.6366V11.6129V11.5891V11.5653V11.5414V11.5174V11.4934V11.4692V11.445V11.4208V11.3965V11.3721V11.3476V11.3231V11.2985V11.2738V11.2491V11.2243V11.1994V11.1745V11.1495V11.1245V11.0994V11.0742V11.0489V11.0236V10.9983V10.9728V10.9474V10.9218V10.8962V10.8705V10.8448V10.819V10.7932V10.7673V10.7413V10.7153V10.6893V10.6631V10.637V10.6107V10.5844V10.5581V10.5317V10.5053V10.4788V10.4522V10.4256V10.3989V10.3722V10.3455V10.3187V10.2918V10.2649V10.2379V10.2109V10.1839V10.1568V10.1296V10.1024V10.0752V10.0479V10.0205V9.99317V9.96574V9.93827V9.91076V9.88321V9.85561V9.82797V9.80029V9.77256V9.7448V9.71699V9.68914V9.66126V9.63333V9.60537V9.57737V9.54932V9.52125V9.49313V9.46498V9.43679V9.40856V9.3803V9.35201V9.32368V9.29531V9.26691V9.23848V9.21002V9.18152V9.15299V9.12443V9.09584V9.06722V9.03857V9.00988V8.98117V8.95243V8.92366V8.89486V8.86604V8.83719V8.80831V8.7794V8.75047V8.72151V8.69253V8.66352V8.63449V8.60544V8.57636V8.54726V8.51813V8.48899V8.45982V8.43063V8.40142V8.37219V8.34294V8.31367V8.28439V8.25508V8.22575V8.19641V8.16705V8.13768V8.10828V8.07887V8.04945V8.02001V7.99056V7.96109V7.9316V7.90211V7.8726V7.84308V7.81355V7.784V7.75444V7.72488V7.6953V7.66571V7.63612V7.60651V7.5769V7.54727V7.51764V7.48801V7.45836V7.42871V7.39905V7.36939V7.33972V7.31005V7.28038V7.2507V7.22101V7.19132V7.16164V7.13194V7.10225V7.07256V7.04286V7.01317V6.98347V6.95378V6.92408V6.89439V6.8647V6.83501V6.80532V6.77564V6.74596V6.71629V6.68661V6.65695V6.62729V6.59763V6.56798V6.53834V6.50871V6.47908V6.44946V6.41985V6.39024V6.36065V6.33106V6.30149V6.27193V6.24237V6.21283V6.1833V6.15378V6.12428V6.09479V6.06531V6.03584V6.00639V5.97696V5.94754V5.91813V5.88875V5.85937V5.83002V5.80068V5.77136V5.74206V5.71278V5.68351V5.65427V5.62505V5.59584V5.56666V5.5375V5.50836V5.47924V5.45015V5.42108V5.39203V5.363V5.334V5.30503V5.27608V5.24716V5.21826V5.18939V5.16054V5.13172V5.10293V5.07417V5.04544V5.01674V4.98806V4.95942V4.93081V4.90222V4.87367V4.84515V4.81666V4.78821V4.75979V4.7314V4.70304V4.67472V4.64644V4.61819V4.58997V4.5618V4.53365V4.50555V4.47748V4.44945V4.42146V4.3935V4.36559V4.33772V4.30988V4.28209V4.25433V4.22662V4.19895V4.17132V4.14374V4.11619V4.08869V4.06124V4.03383V4.00646V3.97914V3.95186V3.92463V3.89745V3.87032V3.84323V3.81618V3.78919V3.76225V3.73535V3.70851V3.68171V3.65496V3.62827V3.60163V3.57503V3.54849V3.52201V3.49557V3.46919V3.44286V3.41659V3.39037V3.36421V3.3381V3.31205V3.28606V3.26012V3.23424V3.20841V3.18265V3.15694V3.1313V3.10571V3.08018V3.05471V3.02931V3.00396V2.97868V2.95345V2.92829V2.9032V2.87817V2.8532V2.82829V2.80345V2.77868V2.75397V2.72932V2.70474V2.68023V2.65579V2.63141V2.60711V2.58287V2.5587V2.5346V2.51057V2.5H64.5H64H31H30.7929L30.6464 2.35355L28.2929 0H12.5ZM29.7071 0L31.2071 1.5H61.2091L57.0228 0H29.7071ZM127.5 2.5V2.51057V2.5346V2.5587V2.58287V2.60711V2.63141V2.65579V2.68023V2.70474V2.72932V2.75397V2.77868V2.80345V2.82829V2.8532V2.87817V2.9032V2.92829V2.95345V2.97868V3.00396V3.02931V3.05471V3.08018V3.10571V3.1313V3.15694V3.18265V3.20841V3.23424V3.26012V3.28606V3.31205V3.3381V3.36421V3.39037V3.41659V3.44286V3.46919V3.49557V3.52201V3.54849V3.57503V3.60163V3.62827V3.65496V3.68171V3.70851V3.73535V3.76225V3.78919V3.81618V3.84323V3.87032V3.89745V3.92463V3.95186V3.97914V4.00646V4.03383V4.06124V4.08869V4.11619V4.14374V4.17132V4.19895V4.22662V4.25433V4.28209V4.30988V4.33772V4.36559V4.3935V4.42146V4.44945V4.47748V4.50555V4.53365V4.5618V4.58997V4.61819V4.64644V4.67472V4.70304V4.7314V4.75979V4.78821V4.81666V4.84515V4.87367V4.90222V4.93081V4.95942V4.98806V5.01674V5.04544V5.07417V5.10293V5.13172V5.16054V5.18939V5.21826V5.24716V5.27608V5.30503V5.334V5.363V5.39203V5.42108V5.45015V5.47924V5.50836V5.5375V5.56666V5.59584V5.62505V5.65427V5.68351V5.71278V5.74206V5.77136V5.80068V5.83002V5.85937V5.88875V5.91813V5.94754V5.97696V6.00639V6.03584V6.06531V6.09479V6.12428V6.15378V6.1833V6.21283V6.24237V6.27193V6.30149V6.33106V6.36065V6.39024V6.41985V6.44946V6.47908V6.50871V6.53834V6.56798V6.59763V6.62729V6.65695V6.68661V6.71629V6.74596V6.77564V6.80532V6.83501V6.8647V6.89439V6.92408V6.95378V6.98347V7.01317V7.04286V7.07256V7.10225V7.13194V7.16164V7.19132V7.22101V7.2507V7.28038V7.31005V7.33972V7.36939V7.39905V7.42871V7.45836V7.48801V7.51764V7.54727V7.5769V7.60651V7.63612V7.66571V7.6953V7.72488V7.75444V7.784V7.81355V7.84308V7.8726V7.90211V7.9316V7.96109V7.99056V8.02001V8.04945V8.07887V8.10828V8.13768V8.16705V8.19641V8.22575V8.25508V8.28439V8.31367V8.34294V8.37219V8.40142V8.43063V8.45982V8.48899V8.51813V8.54726V8.57636V8.60544V8.63449V8.66352V8.69253V8.72151V8.75047V8.7794V8.80831V8.83719V8.86604V8.89486V8.92366V8.95243V8.98117V9.00988V9.03857V9.06722V9.09584V9.12443V9.15299V9.18152V9.21002V9.23848V9.26691V9.29531V9.32368V9.35201V9.3803V9.40856V9.43679V9.46498V9.49313V9.52125V9.54932V9.57737V9.60537V9.63333V9.66126V9.68914V9.71699V9.7448V9.77256V9.80029V9.82797V9.85561V9.88321V9.91076V9.93827V9.96574V9.99317V10.0205V10.0479V10.0752V10.1024V10.1296V10.1568V10.1839V10.2109V10.2379V10.2649V10.2918V10.3187V10.3455V10.3722V10.3989V10.4256V10.4522V10.4788V10.5053V10.5317V10.5581V10.5844V10.6107V10.637V10.6631V10.6893V10.7153V10.7413V10.7673V10.7932V10.819V10.8448V10.8705V10.8962V10.9218V10.9474V10.9728V10.9983V11.0236V11.0489V11.0742V11.0994V11.1245V11.1495V11.1745V11.1994V11.2243V11.2491V11.2738V11.2929L130.5 8.29289V2.5H127.5ZM184 71V67.5H165.207L163 69.7071V71H184ZM136.5 7.5H142V11.2929L136.646 16.6464L137.354 17.3536L142.854 11.8536L143 11.7071V11.5V7V6.5H142.5H136.5V7.5ZM131.5 11V9.79289L130.646 10.6464L126.646 14.6464L127.354 15.3536L130.5 12.2071V19.5H131.5V11ZM5 66H65V67H5V66ZM65 68H5V69H65V68Z" fill="#FF0000"/>
</svg>
