<svg width="213" height="71" viewBox="0 0 213 71" fill="none" xmlns="http://www.w3.org/2000/svg">
<path d="M76.1914 71.0001L81.5159 69.2324H184.303L187.246 71.0001H76.1914Z" fill="#FF0000"/>
<path d="M212.124 5.0083L197.934 0H208.017L212.124 5.0083Z" fill="#FF0000"/>
<path d="M13.2651 3.24066L11.0742 0H72.6427L63.3315 3.24066H13.2651Z" fill="#FF0000"/>
<path fill-rule="evenodd" clip-rule="evenodd" d="M136.365 0H143.365V2.5H138.365H137.865V3V15H138.865V3.5H143.865H144.365V3V0H196.058L212.49 5.74481V64.2241L208.317 67.7451L200.865 60.2929V46.5V45.2929L200.012 46.1464L192.012 54.1464L191.865 54.2929V54.5V71H189.149L185.228 68.6432H81.7842L74.6888 71H0V46.9896V44V25.5V23.8631V0H9.52282L12.5104 4.41909H64.2324L76.9295 0H110.365V4H112.365V0H115.365V4H117.365V0H120.365V4H122.365V0H135.365V6.79289L132.012 10.1464L131.865 10.2929V10.5V23H132.865V10.7071L136.219 7.35355L136.365 7.20711V7V0ZM135.365 22V10.5H136.365V20.7929L140.012 17.1464L140.719 17.8536L136.219 22.3536L135.365 23.2071V22ZM200.012 60.8536L207.55 68.3923L204.461 71H199.365V65H198.365V71H192.865V54.7071L199.865 47.7071V60.5V60.7071L200.012 60.8536ZM16.3652 62H11.3652V68H16.3652V62ZM18.3652 62H23.3652V68H18.3652V62ZM30.3652 62H25.3652V68H30.3652V62ZM32.3652 62H66.3652V68H32.3652V62ZM207.365 61H209.365V27H207.365V61ZM204.365 61H206.365V27H204.365V61ZM153.865 4H177.658L178.512 4.85355L178.658 5H178.865H189.365V4H179.072L178.219 3.14645L178.072 3H177.865H153.865V4Z" fill="#FF0000"/>
</svg>
